<?xml version="1.0" encoding="UTF-8"?>
<svg width="259px" height="258px" viewBox="0 0 259 258" version="1.1" xmlns="http://www.w3.org/2000/svg" xmlns:xlink="http://www.w3.org/1999/xlink">
    <title>calendar-check-solid</title>
    <g id="Page-1" stroke="none" stroke-width="1" fill="none" fill-rule="evenodd">
        <g id="calendar-check-solid" transform="translate(1.000000, 1.000000)">
            <ellipse id="Oval-Copy-10" stroke="#DDDDDD" cx="128.5" cy="128" rx="128.5" ry="128"></ellipse>
            <circle id="Oval-Copy-9" stroke="#DDDDDD" cx="129" cy="128" r="113"></circle>
            <path d="M176.348214,106 L82.6517857,106 C81.1873371,106 80,104.723913 80,103.15 L80,94.6 C80,88.303875 84.7489063,83.2 90.6071429,83.2 L101.214286,83.2 L101.214286,70.85 C101.214286,69.2760875 102.401623,68 103.866071,68 L112.705357,68 C114.169806,68 115.357143,69.2760875 115.357143,70.85 L115.357143,83.2 L143.642857,83.2 L143.642857,70.85 C143.642857,69.2760875 144.830194,68 146.294643,68 L155.133929,68 C156.598377,68 157.785714,69.2760875 157.785714,70.85 L157.785714,83.2 L168.392857,83.2 C174.251094,83.2 179,88.303875 179,94.6 L179,103.15 C179,104.723913 177.812663,106 176.348214,106 Z M82.6517857,113 L176.348214,113 C177.812663,113 179,114.259297 179,115.8125 L179,176.75 C179,182.963281 174.251094,188 168.392857,188 L90.6071429,188 C84.7489063,188 80,182.963281 80,176.75 L80,115.8125 C80,114.259297 81.1873371,113 82.6517857,113 Z M156.232817,135.567139 L150.02456,128.84063 C148.995985,127.726177 147.321437,127.718834 146.284487,128.824523 L122.91465,153.738996 L112.78097,142.759801 C111.752394,141.645348 110.077626,141.638005 109.040676,142.743694 L102.78217,149.416198 C101.745219,150.52165 101.738387,152.321355 102.767183,153.435808 L120.971884,173.15937 C122.000459,174.273823 123.675007,174.281166 124.711957,173.175477 L156.21783,139.586749 C157.254781,138.481297 157.261613,136.681592 156.232817,135.567139 L156.232817,135.567139 Z" id="Shape" fill="#CBC6C8" fill-rule="nonzero"></path>
        </g>
    </g>
</svg>