<?xml version="1.0" encoding="UTF-8"?>
<svg width="259px" height="258px" viewBox="0 0 259 258" version="1.1" xmlns="http://www.w3.org/2000/svg" xmlns:xlink="http://www.w3.org/1999/xlink">
    <title>database-solid-2</title>
    <g id="Page-1" stroke="none" stroke-width="1" fill="none" fill-rule="evenodd">
        <g id="database-solid-2" transform="translate(1.000000, 1.000000)">
            <path d="M191,84.5238437 L191,95.4761563 C191,105.12801 163.229259,113 129,113 C94.7707411,113 67,105.12801 67,95.4761563 L67,84.5238437 C67,74.8719896 94.7707411,67 129,67 C163.229259,67 191,74.8719896 191,84.5238437 Z M191,109 L191,133.54542 C191,143.159125 163.229259,151 129,151 C94.7707411,151 67,143.159125 67,133.54542 L67,109 C80.3203125,116.909125 104.700429,120.591045 129,120.591045 C153.299571,120.591045 177.679411,116.909125 191,109 Z M191,147 L191,171.54542 C191,181.159125 163.229259,189 129,189 C94.7707411,189 67,181.159125 67,171.54542 L67,147 C80.3203125,154.909125 104.700429,158.591045 129,158.591045 C153.299571,158.591045 177.679411,154.909125 191,147 Z" id="Shape" fill="#CBC6C8" fill-rule="nonzero"></path>
            <ellipse id="Oval-Copy-12" stroke="#DDDDDD" cx="128.5" cy="128" rx="128.5" ry="128"></ellipse>
            <circle id="Oval-Copy-11" stroke="#DDDDDD" cx="129" cy="128" r="113"></circle>
        </g>
    </g>
</svg>