<?xml version="1.0" encoding="UTF-8"?>
<svg width="150px" height="150px" viewBox="0 0 150 150" version="1.1" xmlns="http://www.w3.org/2000/svg" xmlns:xlink="http://www.w3.org/1999/xlink">
    <title>Shape</title>
    <g id="Page-1" stroke="none" stroke-width="1" fill="none" fill-rule="evenodd">
        <g id="database-solid" fill="#CBC6C8" fill-rule="nonzero">
            <path d="M150,21.4286133 L150,34.8213867 C150,46.6239258 116.406362,56.25 75,56.25 C33.5936384,56.25 0,46.6239258 0,34.8213867 L0,21.4286133 C0,9.62607422 33.5936384,0 75,0 C116.406362,0 150,9.62607422 150,21.4286133 Z M150,51.5625 L150,81.6963867 C150,93.4989258 116.406362,103.125 75,103.125 C33.5936384,103.125 0,93.4989258 0,81.6963867 L0,51.5625 C16.1132812,61.2723633 45.6053571,65.7925781 75,65.7925781 C104.394643,65.7925781 133.886384,61.2723633 150,51.5625 Z M150,98.4375 L150,128.571387 C150,140.373926 116.406362,150 75,150 C33.5936384,150 0,140.373926 0,128.571387 L0,98.4375 C16.1132812,108.147363 45.6053571,112.667578 75,112.667578 C104.394643,112.667578 133.886384,108.147363 150,98.4375 Z" id="Shape"></path>
        </g>
    </g>
</svg>