<?xml version="1.0" encoding="UTF-8"?>
<svg width="259px" height="258px" viewBox="0 0 259 258" version="1.1" xmlns="http://www.w3.org/2000/svg" xmlns:xlink="http://www.w3.org/1999/xlink">
    <title>heartbeat-solid</title>
    <g id="Page-1" stroke="none" stroke-width="1" fill="none" fill-rule="evenodd">
        <g id="heartbeat-solid" transform="translate(1.000000, 1.000000)">
            <path d="M144.763562,125.404949 L132.173234,152.170475 C130.653275,155.428653 126.245394,155.320944 124.852098,152.008912 L110.43782,118 L102.838025,137.306722 L79,137.306722 L125.232088,187.525742 C127.030706,189.491419 129.943961,189.491419 131.742579,187.525742 L178,137.306722 L150.362078,137.306722 L144.763562,125.404949 Z M184.272182,79.3229616 L183.662842,78.6481724 C170.587429,64.4506092 149.184375,64.4506092 136.083573,78.6481724 L129,86.3677601 L121.916427,78.675164 C108.841014,64.4506092 87.4125706,64.4506092 74.3371578,78.675164 L73.7278182,79.3229616 C61.3633016,92.764761 60.8301295,114.169072 71.8744102,128.474602 L97.8729008,128.474602 L106.987606,105.207873 C108.35862,101.725961 112.979446,101.644986 114.452016,105.099906 L129.228502,140 L141.669186,113.575258 C143.167146,110.390253 147.432524,110.390253 148.930484,113.575258 L155.937889,128.474602 L186.12559,128.474602 C197.169871,114.169072 196.636698,92.764761 184.272182,79.3229616 L184.272182,79.3229616 Z" id="Shape" fill="#CBC6C8" fill-rule="nonzero"></path>
            <ellipse id="Oval-Copy-6" stroke="#DDDDDD" cx="128.5" cy="128" rx="128.5" ry="128"></ellipse>
            <circle id="Oval-Copy-5" stroke="#DDDDDD" cx="129" cy="128" r="113"></circle>
        </g>
    </g>
</svg>