<?xml version="1.0" encoding="UTF-8"?>
<svg width="259px" height="258px" viewBox="0 0 259 258" version="1.1" xmlns="http://www.w3.org/2000/svg" xmlns:xlink="http://www.w3.org/1999/xlink">
    <title>hotel-solid</title>
    <g id="Page-1" stroke="none" stroke-width="1" fill="none" fill-rule="evenodd">
        <g id="hotel-solid" transform="translate(1.000000, 1.000000)">
            <path d="M175.305556,90.625 C176.794236,90.625 178,89.2125781 178,87.46875 L178,81.15625 C178,79.4124219 176.794236,78 175.305556,78 L83.6944444,78 C82.2057639,78 81,79.4124219 81,81.15625 L81,87.46875 C81,89.2125781 82.2057639,90.625 83.6944444,90.625 L86.3855208,90.625 L86.3855208,166.375 L83.6944444,166.375 C82.2057639,166.375 81,167.787422 81,169.53125 L81,175.84375 C81,177.587578 82.2057639,179 83.6944444,179 L124.111111,179 L124.111111,163.21875 C124.111111,161.482812 125.323611,160.0625 126.805556,160.0625 L132.194444,160.0625 C133.676389,160.0625 134.888889,161.482812 134.888889,163.21875 L134.888889,179 L175.305556,179 C176.794236,179 178,177.587578 178,175.84375 L178,169.53125 C178,167.787422 176.794236,166.375 175.305556,166.375 L172.611111,166.375 L172.611111,90.625 L175.305556,90.625 Z M124,100.4 C124,99.2 125.1,98 126.2,98 L132.8,98 C133.9,98 135,99.2 135,100.4 L135,107.6 C135,108.8 133.9,110 132.8,110 L126.2,110 C125.1,110 124,108.8 124,107.6 L124,100.4 L124,100.4 Z M124,118.4 C124,117.2 125.1,116 126.2,116 L132.8,116 C133.9,116 135,117.2 135,118.4 L135,125.6 C135,126.8 133.9,128 132.8,128 L126.2,128 C125.1,128 124,126.8 124,125.6 L124,118.4 L124,118.4 Z M103,100.4 C103,99.2 104.1,98 105.2,98 L111.8,98 C112.9,98 114,99.2 114,100.4 L114,107.6 C114,108.8 112.9,110 111.8,110 L105.2,110 C104.1,110 103,108.8 103,107.6 L103,100.4 Z M111.8,128 L105.2,128 C104.1,128 103,126.8 103,125.6 L103,118.4 C103,117.2 104.1,116 105.2,116 L111.8,116 C112.9,116 114,117.2 114,118.4 L114,125.6 C114,126.8 112.9,128 111.8,128 Z M112,153 C112,142.506458 119.387187,134 128.5,134 C137.612812,134 145,142.506458 145,153 L112,153 Z M156,125.6 C156,126.8 154.9,128 153.8,128 L147.2,128 C146.1,128 145,126.8 145,125.6 L145,118.4 C145,117.2 146.1,116 147.2,116 L153.8,116 C154.9,116 156,117.2 156,118.4 L156,125.6 Z M156,107.6 C156,108.8 154.9,110 153.8,110 L147.2,110 C146.1,110 145,108.8 145,107.6 L145,100.4 C145,99.2 146.1,98 147.2,98 L153.8,98 C154.9,98 156,99.2 156,100.4 L156,107.6 Z" id="Shape" fill="#CBC6C8" fill-rule="nonzero"></path>
            <ellipse id="Oval-Copy-2" stroke="#DDDDDD" cx="128.5" cy="128" rx="128.5" ry="128"></ellipse>
            <circle id="Oval-Copy" stroke="#DDDDDD" cx="129" cy="128" r="113"></circle>
        </g>
    </g>
</svg>