<?xml version="1.0" encoding="UTF-8"?>
<svg width="259px" height="258px" viewBox="0 0 259 258" version="1.1" xmlns="http://www.w3.org/2000/svg" xmlns:xlink="http://www.w3.org/1999/xlink">
    <title>landmark-solid</title>
    <g id="Page-1" stroke="none" stroke-width="1" fill="none" fill-rule="evenodd">
        <g id="landmark-solid" transform="translate(1.000000, 1.000000)">
            <ellipse id="Oval" stroke="#DDDDDD" cx="128.5" cy="128" rx="128.5" ry="128"></ellipse>
            <circle id="Oval" stroke="#DDDDDD" cx="129" cy="128" r="113"></circle>
            <path d="M178.891563,95.4219974 L131.283125,77.407994 C129.811877,76.864002 128.190154,76.864002 126.718906,77.407994 L79.1084375,95.4219974 C77.8402383,95.8905099 77,97.0843086 77,98.417998 L77,105.799999 C77,107.568 78.454375,109 80.25,109 L177.75,109 C179.545625,109 181,107.568 181,105.799999 L181,98.417998 C181,97.0839977 180.159063,95.8899975 178.891563,95.4219974 Z M90.5,115 L90.5,147.142857 L87.25,147.142857 C85.454375,147.142857 84,148.58125 84,150.357143 L84,160 L175,160 L175,150.357143 C175,148.58125 173.545625,147.142857 171.75,147.142857 L168.5,147.142857 L168.5,115 L155.5,115 L155.5,147.142857 L136,147.142857 L136,115 L123,115 L123,147.142857 L103.5,147.142857 L103.5,115 L90.5,115 Z M177.75,167 L80.25,167 C78.454375,167 77,168.454375 77,170.25 L77,176.75 C77,178.545625 78.454375,180 80.25,180 L177.75,180 C179.545625,180 181,178.545625 181,176.75 L181,170.25 C181,168.454375 179.545625,167 177.75,167 Z" id="Shape" fill="#CBC6C8" fill-rule="nonzero"></path>
        </g>
    </g>
</svg>