<?xml version="1.0" encoding="UTF-8"?>
<svg width="259px" height="258px" viewBox="0 0 259 258" version="1.1" xmlns="http://www.w3.org/2000/svg" xmlns:xlink="http://www.w3.org/1999/xlink">
    <title>music-solid</title>
    <g id="Page-1" stroke="none" stroke-width="1" fill="none" fill-rule="evenodd">
        <g id="music-solid" transform="translate(1.000000, 1.000000)">
            <path d="M179.326602,57.4106307 L104.958574,83.6183518 C101.86049,84.7797002 99.7519483,88.2053973 99.75,92.0805972 L99.75,164.585205 C97.3145638,163.87976 94.8186133,163.51489 92.3125,163.497954 C79.9941406,163.497954 70,171.447084 70,181.248977 C70,191.05087 79.9941406,199 92.3125,199 C104.630859,199 114.625,191.05087 114.625,181.248977 L114.625,116.435555 L174.125,95.6335753 L174.125,146.836955 C171.689884,146.129085 169.193785,145.763262 166.6875,145.746932 C154.369141,145.746932 144.375,153.696061 144.375,163.497954 C144.375,173.299847 154.369141,181.248977 166.6875,181.248977 C179.005859,181.248977 189,173.302621 189,163.497954 L189,65.8673289 C188.997798,63.0414695 187.868097,60.38575 185.957833,58.7157549 C184.047568,57.0457598 181.585077,56.5611051 179.326602,57.4106307 Z" id="Path" fill="#CBC6C8" fill-rule="nonzero"></path>
            <ellipse id="Oval-Copy-16" stroke="#DDDDDD" cx="128.5" cy="128" rx="128.5" ry="128"></ellipse>
            <circle id="Oval-Copy-15" stroke="#DDDDDD" cx="129" cy="128" r="113"></circle>
        </g>
    </g>
</svg>