<?xml version="1.0" encoding="UTF-8"?>
<svg width="259px" height="258px" viewBox="0 0 259 258" version="1.1" xmlns="http://www.w3.org/2000/svg" xmlns:xlink="http://www.w3.org/1999/xlink">
    <title>music-solid</title>
    <g id="Page-1" stroke="none" stroke-width="1" fill="none" fill-rule="evenodd">
        <g id="music-solid" transform="translate(1.000000, 1.000000)">
            <path d="M172.545937,75.3094189 L107.552031,95.0574904 C104.844462,95.932591 103.001703,98.5139261 103,101.433971 L103,156.067725 C100.871552,155.536157 98.6902167,155.26122 96.5,155.248459 C85.734375,155.248459 77,161.238296 77,168.624229 C77,176.010163 85.734375,182 96.5,182 C107.265625,182 116,176.010163 116,168.624229 L116,119.785947 L168,104.111215 L168,142.694044 C165.871831,142.160648 163.690367,141.884993 161.5,141.872688 C150.734375,141.872688 142,147.862525 142,155.248459 C142,162.634392 150.734375,168.624229 161.5,168.624229 C172.265625,168.624229 181,162.636482 181,155.248459 L181,81.6817197 C180.998076,79.5523749 180.010774,77.5512342 178.341299,76.2928576 C176.671824,75.034481 174.519731,74.6692835 172.545937,75.3094189 Z" id="Path" fill="#CBC6C8" fill-rule="nonzero"></path>
            <ellipse id="Oval-Copy-16" stroke="#DDDDDD" cx="128.5" cy="128" rx="128.5" ry="128"></ellipse>
            <circle id="Oval-Copy-15" stroke="#DDDDDD" cx="129" cy="128" r="113"></circle>
        </g>
    </g>
</svg>