<?xml version="1.0" encoding="UTF-8"?>
<svg width="259px" height="258px" viewBox="0 0 259 258" version="1.1" xmlns="http://www.w3.org/2000/svg" xmlns:xlink="http://www.w3.org/1999/xlink">
    <title>retweet-solid</title>
    <g id="Page-1" stroke="none" stroke-width="1" fill="none" fill-rule="evenodd">
        <g id="retweet-solid" transform="translate(1.000000, 1.000000)">
            <ellipse id="Oval-Copy-4" stroke="#DDDDDD" cx="128.5" cy="128" rx="128.5" ry="128"></ellipse>
            <circle id="Oval-Copy-3" stroke="#DDDDDD" cx="129" cy="128" r="113"></circle>
            <path d="M183.774341,146.566512 L166.219729,167.536091 C164.585545,169.48797 161.936296,169.48797 160.302113,167.536091 L142.747326,146.566512 C141.113143,144.614424 141.113143,141.449598 142.747326,139.497719 L144.634317,137.243644 C146.301452,135.252195 149.016258,135.29843 150.635272,137.346112 L157.681631,146.258277 L157.681631,108.329093 L124.982448,108.329093 C123.872679,108.329027 122.808365,107.802459 122.023553,106.865184 L119.233951,103.53291 C116.597952,100.383912 118.464893,95 122.192846,95 L164.655634,95 C166.966644,95 168.840036,97.2378297 168.840036,99.9984099 L168.840036,146.258277 L175.886569,137.346112 C177.505409,135.298638 180.220214,135.252195 181.887524,137.243644 L183.774515,139.497719 C185.408524,141.449598 185.408524,144.614633 183.774341,146.566512 L183.774341,146.566512 Z M135.976272,150.134841 C135.191524,149.197451 134.127168,148.670864 133.017376,148.670935 L100.318356,148.670935 L100.318356,110.741623 L107.364891,119.653769 C108.983907,121.701239 111.698538,121.747682 113.365849,119.756028 L115.252666,117.502167 C116.88685,115.550084 116.88685,112.385264 115.252666,110.433389 L97.698048,89.4640624 C96.0638642,87.5119792 93.4144395,87.5119792 91.7804301,89.4640624 L74.2256379,110.433597 C72.591454,112.38568 72.591454,115.5505 74.2256379,117.502375 L76.112455,119.756237 C77.7795911,121.747682 80.494397,121.701447 82.1134124,119.653978 L89.1599475,110.741623 L89.1599475,157.001601 C89.1599475,159.762175 91.0333397,162 93.3443508,162 L135.807152,162 C139.535107,162 141.402048,156.616099 138.766048,153.467108 L135.976272,150.134841 L135.976272,150.134841 Z" id="Shape-Copy" fill="#CBC6C8" fill-rule="nonzero"></path>
        </g>
    </g>
</svg>