<?xml version="1.0" encoding="UTF-8"?>
<svg width="259px" height="258px" viewBox="0 0 259 258" version="1.1" xmlns="http://www.w3.org/2000/svg" xmlns:xlink="http://www.w3.org/1999/xlink">
    <title>water-solid</title>
    <g id="Page-1" stroke="none" stroke-width="1" fill="none" fill-rule="evenodd">
        <g id="water-solid" transform="translate(1.000000, 1.000000)">
            <path d="M203.261514,163.966786 C197.437599,163.291144 191.857476,161.010855 187.577576,157.520041 C183.758171,154.3952 178.313488,154.338896 174.521172,157.520041 C164.254829,166.078165 145.482861,166.078165 135.05399,157.097765 C131.397113,153.944772 126.114958,154.535958 122.403905,157.604496 C112.110474,166.078165 93.4468587,166.050013 83.0721638,157.125917 C79.4152871,153.972924 74.0518678,154.620414 70.313727,157.688951 C66.1150907,161.123462 60.5620556,163.347448 54.6839648,163.994937 C52.5440146,164.220151 51,166.190772 51,168.414758 L51,177.479612 C51,180.041419 53.0586862,182.209102 55.523692,181.983888 C63.3250292,181.280095 70.7200467,178.774592 77.0315451,174.692592 C92.3362517,184.433088 114.142073,184.292329 129.040459,174.692592 C144.345166,184.433088 166.150987,184.292329 181.049374,174.692592 C187.360872,178.690136 194.837154,181.251943 202.475963,181.955736 C204.940969,182.18095 207,180.013267 207,177.451461 L207,168.555516 C207.026743,166.303378 205.45564,164.220151 203.261514,163.966786 L203.261514,163.966786 Z M203.261514,123.966786 C197.437599,123.291144 191.857476,121.010855 187.577576,117.520041 C183.758171,114.3952 178.313488,114.338896 174.521172,117.520041 C164.254829,126.078165 145.482861,126.078165 135.05399,117.097765 C131.397113,113.944772 126.114958,114.535958 122.403905,117.604496 C112.110474,126.078165 93.4468587,126.050013 83.0721638,117.125917 C79.4152871,113.972924 74.0518678,114.620414 70.313727,117.688951 C66.1150907,121.123462 60.5620556,123.347448 54.6839648,123.994937 C52.5440146,124.220151 51,126.190772 51,128.414758 L51,137.479612 C51,140.041419 53.0586862,142.209102 55.523692,141.983888 C63.3250292,141.280095 70.7200467,138.774592 77.0315451,134.692592 C92.3362517,144.433088 114.142073,144.292329 129.040459,134.692592 C144.345166,144.433088 166.150987,144.292329 181.049374,134.692592 C187.360872,138.690136 194.837154,141.251943 202.475963,141.955736 C204.940969,142.18095 207,140.013267 207,137.451461 L207,128.555516 C207.026743,126.303378 205.45564,124.220151 203.261514,123.966786 L203.261514,123.966786 Z M203.261514,82.9667855 C197.437599,82.2629924 191.857476,80.0108546 187.577576,76.5200411 C183.758171,73.3951999 178.313488,73.3388964 174.521172,76.5200411 C164.254829,85.0781647 145.482861,85.0781647 135.05399,76.0977652 C131.397113,72.9447723 126.114958,73.5359585 122.403905,76.6044962 C112.110474,85.0781647 93.4468587,85.050013 83.0721638,76.1259169 C79.4152871,72.972924 74.0518678,73.6204137 70.313727,76.6889514 C66.1150907,80.1234615 60.5620556,82.3474476 54.6839648,82.9949372 C52.5440146,83.220151 51,85.1907716 51,87.4147576 L51,96.4796123 C51,99.041419 53.0586862,101.209102 55.523692,100.983888 C63.3250292,100.280095 70.7200467,97.7745915 77.0315451,93.6925918 C92.3362517,103.433088 114.142073,103.292329 129.040459,93.6925918 C144.345166,103.433088 166.150987,103.292329 181.049374,93.6925918 C187.360872,97.6901363 194.837154,100.251943 202.475963,100.955736 C204.940969,101.18095 207,99.0132673 207,96.4514606 L207,87.5555163 C207.026743,85.3033785 205.45564,83.220151 203.261514,82.9667855 L203.261514,82.9667855 Z" id="Shape" fill="#CBC6C8" fill-rule="nonzero"></path>
            <ellipse id="Oval-Copy-14" stroke="#DDDDDD" cx="128.5" cy="128" rx="128.5" ry="128"></ellipse>
            <circle id="Oval-Copy-13" stroke="#DDDDDD" cx="129" cy="128" r="113"></circle>
        </g>
    </g>
</svg>